<svg width="166" height="138" viewBox="0 0 166 138" fill="none" xmlns="http://www.w3.org/2000/svg">
<path d="M164.382 71.9563V136.81H1V71.9563C1 65.8812 5.92487 60.9563 12 60.9563H153.382C159.457 60.9563 164.382 65.8812 164.382 71.9563Z" stroke="black" stroke-width="2"/>
<path d="M1.00188 76.6253H1V71.9563C1 65.8812 5.92487 60.9563 12 60.9563H153.382C159.457 60.9563 164.382 65.8812 164.382 71.9563V76.6603L163.775 76.6819L159.865 76.8211L149.842 77.1781C148.476 77.2267 147.205 76.9722 145.941 76.6158C145.427 76.4705 144.926 76.3123 144.416 76.1513C144.296 76.1133 144.175 76.0751 144.053 76.037C143.426 75.84 142.784 75.6445 142.138 75.4909C140.842 75.1827 139.47 75.0273 138.022 75.3713C136.565 75.7171 135.132 76.5431 133.663 78.0257C132.449 79.2507 130.523 80.3075 128.106 81.0962C125.703 81.8803 122.884 82.3764 119.957 82.5278C114.066 82.8325 107.931 81.735 103.927 79.0074C101.576 77.406 99.3938 77.1164 97.3619 77.4541C95.7064 77.7293 94.1461 78.4302 92.7696 79.0487C92.5258 79.1582 92.2879 79.2651 92.0562 79.3666C90.4344 80.0769 89.1029 80.535 87.8101 80.3573C86.5824 80.1886 85.1649 79.4037 83.5089 77.0499C81.4728 74.1558 78.0589 73.3274 74.3294 73.4031C70.5913 73.4791 66.2496 74.4663 62.0062 75.5157C61.3977 75.6662 60.7913 75.8179 60.1882 75.9688C56.5341 76.8831 53.0049 77.7662 49.9069 78.1469C46.2379 78.5977 43.56 78.2855 42.0178 76.885C40.1289 75.1697 38.7541 73.954 37.7053 73.202C36.7084 72.4873 35.7251 71.974 34.7092 72.1967C34.2006 72.3082 33.7963 72.5814 33.4652 72.8892C33.1418 73.1897 32.8412 73.5683 32.5488 73.9611C32.3937 74.1694 32.2355 74.389 32.0685 74.6207C31.5813 75.2967 31.0201 76.0752 30.2496 76.9748C29.3266 78.0525 28.3449 78.5533 27.403 78.7411C26.4421 78.9326 25.4559 78.8106 24.5346 78.5317C23.6143 78.2531 22.8001 77.8303 22.21 77.4704C21.9171 77.2917 21.6847 77.1318 21.5281 77.0187C21.495 76.9947 21.4653 76.9729 21.4392 76.9534C21.4388 76.9529 21.4385 76.9523 21.4381 76.9518C21.3649 76.8334 21.2582 76.674 21.1178 76.4977C20.8435 76.1531 20.4068 75.7016 19.7994 75.3898C19.1695 75.0665 18.3758 74.906 17.4691 75.1439C16.5868 75.3754 15.69 75.9594 14.7729 76.9436C13.963 77.8129 13.4858 78.1099 13.2415 78.1949C13.1891 78.2132 13.1563 78.2183 13.1399 78.2198C13.1246 78.2212 13.1179 78.2199 13.1158 78.2195L13.1157 78.2195C13.1128 78.219 13.0821 78.2134 13.0084 78.1602C12.9257 78.1005 12.8306 78.0124 12.6869 77.8675C12.6651 77.8455 12.6415 77.8215 12.6165 77.796C12.4972 77.6746 12.3451 77.5199 12.1866 77.3801C11.7766 77.0184 11.183 76.6253 10.3364 76.6253H10.3127H10.289H10.2652H10.2414H10.2175H10.1935H10.1696H10.1455H10.1215H10.0973H10.0732H10.0489H10.0247H10.0003H9.97599H9.95158H9.92712H9.90262H9.87808H9.85349H9.82885H9.80418H9.77946H9.75469H9.72989H9.70504H9.68015H9.65522H9.63024H9.60523H9.58018H9.55508H9.52995H9.50478H9.47957H9.45432H9.42903H9.4037H9.37834H9.35294H9.32751H9.30203H9.27653H9.25098H9.2254H9.19979H9.17414H9.14846H9.12275H9.097H9.07122H9.04541H9.01957H8.99369H8.96779H8.94185H8.91588H8.88988H8.86386H8.8378H8.81171H8.7856H8.75946H8.73329H8.70709H8.68087H8.65462H8.62834H8.60204H8.57571H8.54936H8.52298H8.49658H8.47016H8.44371H8.41723H8.39074H8.36422H8.33768H8.31112H8.28454H8.25794H8.23132H8.20467H8.17801H8.15133H8.12463H8.09791H8.07117H8.04442H8.01765H7.99086H7.96405H7.93723H7.91039H7.88354H7.85667H7.82979H7.80289H7.77598H7.74905H7.72212H7.69517H7.6682H7.64123H7.61424H7.58724H7.56023H7.53322H7.50619H7.47915H7.4521H7.42504H7.39798H7.3709H7.34382H7.31673H7.28964H7.26253H7.23542H7.20831H7.18119H7.15406H7.12693H7.0998H7.07266H7.04552H7.01838H6.99123H6.96408H6.93692H6.90977H6.88262H6.85546H6.8283H6.80115H6.77399H6.74683H6.71968H6.69253H6.66537H6.63822H6.61108H6.58393H6.55679H6.52966H6.50252H6.47539H6.44827H6.42115H6.39404H6.36693H6.33983H6.31274H6.28565H6.25857H6.2315H6.20444H6.17739H6.15034H6.12331H6.09628H6.06927H6.04226H6.01527H5.98829H5.96131H5.93436H5.90741H5.88048H5.85356H5.82665H5.79976H5.77288H5.74602H5.71917H5.69234H5.66552H5.63872H5.61194H5.58517H5.55842H5.53169H5.50498H5.47829H5.45161H5.42496H5.39832H5.37171H5.34511H5.31854H5.29198H5.26545H5.23894H5.21246H5.18599H5.15955H5.13314H5.10674H5.08038H5.05403H5.02771H5.00142H4.97515H4.94891H4.9227H4.89651H4.87035H4.84422H4.81812H4.79204H4.766H4.73998H4.71399H4.68804H4.66211H4.63621H4.61035H4.58452H4.55872H4.53295H4.50721H4.48151H4.45584H4.43021H4.40461H4.37904H4.35351H4.32802H4.30256H4.27713H4.25175H4.2264H4.20109H4.17581H4.15058H4.12538H4.10022H4.0751H4.05002H4.02498H3.99998H3.97503H3.95011H3.92523H3.9004H3.87561H3.85086H3.82616H3.8015H3.77688H3.7523H3.72778H3.70329H3.67885H3.65446H3.63012H3.60582H3.58156H3.55736H3.5332H3.50909H3.48503H3.46102H3.43705H3.41314H3.38928H3.36547H3.3417H3.31799H3.29433H3.27073H3.24717H3.22367H3.20022H3.17682H3.15348H3.13019H3.10696H3.08378H3.06066H3.03759H3.01458H2.99163H2.96873H2.94589H2.92311H2.90038H2.87772H2.85511H2.83256H2.81008H2.78765H2.76528H2.74297H2.72073H2.69854H2.67642H2.65436H2.63236H2.61043H2.58856H2.56675H2.545H2.52333H2.50171H2.48016H2.45868H2.43726H2.41591H2.39463H2.37342H2.35227H2.33119H2.31017H2.28923H2.26836H2.24755H2.22682H2.20615H2.18556H2.16504H2.14459H2.12421H2.1039H2.08367H2.06351H2.04342H2.0234H2.00346H1.9836H1.96381H1.94409H1.92445H1.90489H1.8854H1.86599H1.84666H1.8274H1.80823H1.78913H1.77011H1.75116H1.7323H1.71352H1.69482H1.6762H1.65766H1.6392H1.62082H1.60253H1.58432H1.56619H1.54814H1.53018H1.5123H1.49451H1.4768H1.45918H1.44164H1.42419H1.40682H1.38954H1.37235H1.35525H1.33823H1.3213H1.30446H1.28771H1.27105H1.25448H1.238H1.22161H1.20531H1.1891H1.17299H1.15697H1.14103H1.1252H1.10945H1.0938H1.07824H1.06278H1.04741H1.03214H1.01696H1.00188Z" fill="#3C4959" stroke="black" stroke-width="2"/>
<path d="M131.103 22.491V55.3984H34.6035V22.491C34.6035 16.4158 39.5284 11.491 45.6035 11.491H120.103C126.178 11.491 131.103 16.4158 131.103 22.491Z" stroke="black" stroke-width="2"/>
<path d="M44.6466 11.491H121.06C125.965 11.491 130.048 15.0067 130.928 19.6554C130.824 19.6159 130.716 19.5784 130.604 19.5438C129.197 19.1068 127.306 19.1518 125.319 20.756C124.578 21.3538 124.191 21.3767 124.025 21.3566C123.813 21.3309 123.595 21.202 123.195 20.8687C123.165 20.8439 123.133 20.8171 123.099 20.7888C122.941 20.6557 122.745 20.4909 122.548 20.3526C122.301 20.1783 121.979 19.99 121.586 19.8996C120.693 19.6941 119.869 20.0714 119.098 20.8133C117.941 21.9254 116.045 22.9867 114.026 23.2332C112.061 23.4732 109.977 22.9493 108.243 20.89C107.233 19.6909 106.339 18.8325 105.414 18.3272C104.436 17.7926 103.487 17.6858 102.468 17.856C101.513 18.0155 100.472 18.4251 99.3011 18.8988C99.1861 18.9453 99.069 18.9928 98.9497 19.0412C97.8232 19.4982 96.5012 20.0344 94.8493 20.5855C93.0754 21.1773 92.3728 21.009 92.0661 20.8456C91.9013 20.7578 91.7581 20.6248 91.5923 20.4112C91.507 20.3014 91.4249 20.1827 91.3265 20.0391L91.3104 20.0155C91.2208 19.8847 91.1153 19.7306 91.0013 19.5813C90.7554 19.2593 90.4193 18.8896 89.9201 18.6317C89.4105 18.3684 88.8205 18.2667 88.1344 18.3247C86.8284 18.4352 85.0302 19.14 82.3576 20.6656C79.8165 22.1161 78.2346 22.2332 77.2331 21.9656C76.2252 21.6963 75.548 20.9736 74.9476 20.1273C74.8123 19.9365 74.6871 19.7489 74.5605 19.5592C74.5476 19.5398 74.5347 19.5205 74.5218 19.5011C74.3866 19.2987 74.2437 19.0858 74.1005 18.8952C73.9596 18.7076 73.7902 18.5029 73.5913 18.3309C73.3925 18.159 73.1094 17.972 72.7412 17.9086C71.915 17.7664 71.3151 18.3116 70.9406 18.7844C70.536 19.2953 70.113 20.0686 69.632 21.1171C68.7117 23.1229 67.9561 23.6056 67.4982 23.6989C66.995 23.8015 66.3526 23.5603 65.3429 22.8792C65.0491 22.681 64.7722 22.4809 64.4786 22.2686C64.2757 22.1219 64.0648 21.9695 63.8346 21.8078C63.3039 21.4349 62.7236 21.0526 62.1091 20.7522C60.8555 20.1394 59.3665 19.8298 57.7735 20.6436C55.7043 21.7005 53.9077 21.322 51.9399 20.7774C51.8016 20.7391 51.6611 20.6993 51.5184 20.659C49.7285 20.1525 47.6071 19.5522 45.4627 20.6427C43.6894 21.5445 43.0346 21.4378 42.616 21.3054C42.4782 21.2618 42.3385 21.2042 42.1626 21.1273C42.1333 21.1146 42.1025 21.101 42.0704 21.0868C41.9218 21.0213 41.7443 20.9432 41.5602 20.8724C41.0814 20.6885 40.5108 20.5341 39.7597 20.5341H39.7456H39.7315H39.7173H39.7031H39.6889H39.6747H39.6604H39.6461H39.6317H39.6174H39.603H39.5885H39.5741H39.5596H39.5451H39.5306H39.516H39.5014H39.4868H39.4721H39.4575H39.4428H39.428H39.4133H39.3985H39.3837H39.3689H39.354H39.3392H39.3243H39.3094H39.2944H39.2794H39.2644H39.2494H39.2344H39.2193H39.2043H39.1891H39.174H39.1589H39.1437H39.1285H39.1133H39.0981H39.0828H39.0675H39.0522H39.0369H39.0216H39.0062H38.9909H38.9755H38.9601H38.9446H38.9292H38.9137H38.8982H38.8827H38.8672H38.8517H38.8361H38.8205H38.805H38.7894H38.7737H38.7581H38.7425H38.7268H38.7111H38.6954H38.6797H38.664H38.6482H38.6325H38.6167H38.6009H38.5851H38.5693H38.5535H38.5377H38.5218H38.506H38.4901H38.4742H38.4584H38.4424H38.4265H38.4106H38.3947H38.3787H38.3628H38.3468H38.3308H38.3149H38.2989H38.2829H38.2668H38.2508H38.2348H38.2188H38.2027H38.1867H38.1706H38.1545H38.1385H38.1224H38.1063H38.0902H38.0741H38.058H38.0419H38.0258H38.0097H37.9935H37.9774H37.9613H37.9451H37.929H37.9128H37.8967H37.8805H37.8644H37.8482H37.8321H37.8159H37.7997H37.7836H37.7674H37.7512H37.7351H37.7189H37.7027H37.6865H37.6704H37.6542H37.638H37.6219H37.6057H37.5895H37.5733H37.5572H37.541H37.5248H37.5087H37.4925H37.4763H37.4602H37.444H37.4279H37.4117H37.3956H37.3794H37.3633H37.3472H37.331H37.3149H37.2988H37.2827H37.2666H37.2505H37.2344H37.2183H37.2022H37.1861H37.1701H37.154H37.1379H37.1219H37.1059H37.0898H37.0738H37.0578H37.0418H37.0258H37.0098H36.9938H36.9778H36.9619H36.9459H36.93H36.914H36.8981H36.8822H36.8663H36.8504H36.8346H36.8187H36.8028H36.787H36.7712H36.7554H36.7396H36.7238H36.708H36.6922H36.6765H36.6608H36.645H36.6293H36.6136H36.598H36.5823H36.5667H36.551H36.5354H36.5198H36.5042H36.4887H36.4731H36.4576H36.4421H36.4266H36.4111H36.3957H36.3802H36.3648H36.3494H36.334H36.3186H36.3033H36.288H36.2727H36.2574H36.2421H36.2268H36.2116H36.1964H36.1812H36.1661H36.1509H36.1358H36.1207H36.1056H36.0906H36.0756H36.0605H36.0456H36.0306H36.0157H36.0007H35.9859H35.971H35.9562H35.9413H35.9265H35.9118H35.897H35.8823H35.8676H35.853H35.8383H35.8237H35.8092H35.7946H35.7801H35.7656H35.7511H35.7367H35.7222H35.7078H35.6935H35.6792H35.6649H35.6506H35.6363H35.6221H35.6079H35.5938H35.5797H35.5656H35.5515H35.5375H35.5235H35.5095H35.4956H35.4817H35.4678H35.454H35.4402H35.4264H35.4127H35.399H35.3853H35.3717H35.3581H35.3445H35.331H35.3175H35.304H35.2906H35.2772H35.2638H35.2505H35.2372H35.2239H35.2107H35.1976H35.1844H35.1713H35.1583H35.1452H35.1322H35.1193H35.1064H35.0935H35.0807H35.0679H35.0551H35.0424H35.0297H35.0171H35.0045H34.9919H34.9794H34.967H34.9545H34.9421H34.9298H34.9175H34.9052H34.893H34.8808H34.8687H34.8566H34.8445H34.8325H34.8206H34.8086H34.7968H34.7849H34.7731H34.7614H34.7497H34.738H34.7264H34.7149H34.7034H34.6919H34.6805H34.6691H34.6578H34.6527C35.1546 15.4569 39.4375 11.491 44.6466 11.491Z" fill="#3C4959" stroke="black" stroke-width="2"/>
<rect x="1" y="98.5029" width="163.382" height="10.6996" fill="#3C4959" stroke="black" stroke-width="2"/>
<ellipse cx="58.5324" cy="5.52156" rx="6.08022" ry="5.52156" fill="#3C4959"/>
<ellipse cx="82.8527" cy="5.52156" rx="6.08022" ry="5.52156" fill="#3C4959"/>
<ellipse cx="107.173" cy="5.52156" rx="6.08022" ry="5.52156" fill="#3C4959"/>
<rect x="34.6035" y="34.1294" width="96.4996" height="7.38666" fill="#3C4959" stroke="black" stroke-width="2"/>
</svg>
