<svg width="129" height="89" viewBox="0 0 129 89" fill="none" xmlns="http://www.w3.org/2000/svg">
<path d="M129 36.7775C129 30.15 123.627 24.7774 117 24.7774H55.4543V57.3323C55.4543 63.9597 60.8169 69.3323 67.4444 69.3323C79.6874 69.3323 97.486 69.3323 101.755 69.3323C108.42 69.3323 124.385 88.4909 124.385 88.4909C124.385 88.4909 121.521 69.3323 124.385 69.3323V69.3323C126.934 69.3323 129 67.266 129 64.7171V36.7775Z" fill="#D9B777"/>
<rect x="66.4668" y="35.3963" width="51.5213" height="3.53963" fill="#3C4959"/>
<rect x="66.4668" y="44.0488" width="51.5213" height="3.53963" fill="#3C4959"/>
<rect x="67.2529" y="53.0945" width="50.7348" height="3.53963" fill="#3C4959"/>
<path d="M3.75073e-07 12C3.75073e-07 5.37258 5.37258 0 12 0H85.1433C91.7707 0 97.1433 5.37258 97.1433 12V46.9939C97.1433 53.6213 91.7815 58.9939 85.1541 58.9939C69.1463 58.9939 42.0919 58.9939 35.9863 58.9939C27.1829 58.9939 6.09604 84.3613 6.09604 84.3613C6.09604 84.3613 9.87917 58.9939 6.09604 58.9939V58.9939C2.72929 58.9939 3.75073e-07 56.2646 3.75073e-07 52.8979V12Z" fill="#3C4959"/>
<rect x="14.9453" y="13.7652" width="65.2866" height="4.32622" fill="#D9B777"/>
<rect x="14.9453" y="24.7774" width="65.2866" height="4.32622" fill="#D9B777"/>
<rect x="15.7314" y="36.1829" width="39.7226" height="4.32622" fill="#D9B777"/>
</svg>
