<svg width="132" height="149" viewBox="0 0 132 149" fill="none" xmlns="http://www.w3.org/2000/svg">
<path d="M1.88706 5.49424C3.82496 2.89347 9.01948 3.83502 10.2085 5.49424C11.3976 7.15346 79.0394 5.49424 123.143 5.49424C125.929 5.49424 128.451 3.39568 130.276 5.49424C131.857 7.31299 130.276 9.25035 130.276 11.6571C130.276 35.7246 130.276 68.782 130.276 70.2043C130.276 71.6265 133.129 76.1301 130.276 79.9226C127.422 83.7152 121.174 79.9226 118.388 79.9226C74.2847 79.9226 13.0616 79.9226 13.0616 79.9226C13.0616 79.9226 4.50325 81.8446 1.88706 79.9226C-2.63019 76.6042 2.34905 72.5619 2.60061 69.9672C4.92322 46.0114 2.60061 11.6571 2.60061 11.6571C2.60061 11.6571 0.447474 7.42624 1.88706 5.49424Z" fill="#3C4959"/>
<path d="M41 2.87077C72.6678 -0.41788 90.1882 -1.18089 121.056 2.16669V147.37C121.056 147.37 114.412 145.709 111.049 147.37C107.685 149.031 104.447 148.699 101.042 147.37C97.637 146.041 94.1491 148.699 91.0349 147.37C87.9207 146.041 83.8514 145.377 81.0279 147.37C78.2044 149.363 74.5504 145.709 71.0209 147.37C67.4915 149.031 64.9219 147.37 61.014 147.37C57.106 147.37 53.9551 144.712 51.007 147.37C48.0589 150.027 41 147.37 41 147.37V2.87077Z" fill="#D9B777"/>
<path d="M20 81H38.6022V91.6298C38.6022 91.6298 35.2804 92.6264 33.9516 91.6298C32.6229 90.6333 31.9585 90.3011 29.3011 91.6298C26.6436 92.9585 26.6436 89.9689 24.6505 91.6298C22.6575 93.2907 20 91.6298 20 91.6298V81Z" fill="#D9B777"/>
</svg>
