<svg width="287" height="192" viewBox="0 0 287 192" fill="none" xmlns="http://www.w3.org/2000/svg">
<path d="M267.382 179.258H191.861L187.356 137.373L195.3 69.5139H181.066L178.749 58.2593H282.32L267.382 179.258Z" stroke="black" stroke-width="2"/>
<path d="M259.518 46.3426H201.921C200.092 46.3426 198.61 44.8606 198.61 43.0325C198.61 41.2043 200.092 39.7222 201.921 39.7222H259.518C261.346 39.7222 262.828 41.2042 262.828 43.0324C262.828 44.8606 261.346 46.3426 259.518 46.3426Z" fill="#3C4959" stroke="black" stroke-width="2"/>
<path d="M279.71 55.6111H181.067C177.593 55.6111 174.777 52.7953 174.777 49.3219C174.777 45.8483 177.593 43.0324 181.067 43.0324H279.71C283.184 43.0324 286 45.8483 286 49.3218C286 52.7953 283.184 55.6111 279.71 55.6111Z" fill="#3C4959" stroke="black" stroke-width="2"/>
<rect x="250.088" y="74.6482" width="14.2269" height="31.4398" rx="3.5" fill="#3C4959" stroke="black"/>
<rect x="256.046" y="58.7593" width="2.31019" height="15.5509" fill="#3C4959" stroke="black"/>
<path d="M31.3184 179.258L18.2061 58.2593H121.777L118.505 69.5139H92.0232L103.94 179.258H31.3184Z" stroke="black" stroke-width="2"/>
<circle cx="60.5764" cy="167.495" r="6.62037" fill="#3C4959"/>
<circle cx="60.5764" cy="167.495" r="6.62037" fill="#3C4959"/>
<circle cx="43.3635" cy="156.241" r="6.62037" fill="#3C4959"/>
<circle cx="43.3635" cy="156.241" r="6.62037" fill="#3C4959"/>
<circle cx="83.0862" cy="149.62" r="6.62037" fill="#3C4959"/>
<circle cx="83.0862" cy="149.62" r="6.62037" fill="#3C4959"/>
<circle cx="93.0159" cy="169.481" r="6.62037" fill="#3C4959"/>
<circle cx="93.0159" cy="169.481" r="6.62037" fill="#3C4959"/>
<circle cx="56.6038" cy="143" r="6.62037" fill="#3C4959"/>
<circle cx="56.6038" cy="143" r="6.62037" fill="#3C4959"/>
<path d="M23.5121 54.9421L1.48842 1H13.2309L35.2546 54.9421H23.5121Z" fill="#3C4959" stroke="black" stroke-width="2"/>
<path d="M105.137 190.513L92.0244 69.5139H195.595L180.657 190.513H105.137Z" stroke="black" stroke-width="2"/>
<path d="M99.9683 141.676L95.9961 103.94H191.329L186.695 141.676H99.9683Z" fill="#3C4959" stroke="black" stroke-width="2"/>
<path d="M189.344 39.3912H96.6592C98.7383 36.9624 99.8305 35.5703 100.145 32.4398H186.122C186.191 35.8691 187.177 37.2228 189.344 39.3912Z" fill="#3C4959" stroke="black" stroke-width="2"/>
<path d="M200.927 66.4449H84.7422C84.7422 66.4449 88.774 49.7264 88.2277 39.7222H197.442C197.361 50.9133 200.927 66.4449 200.927 66.4449Z" fill="#3C4959" stroke="black" stroke-width="2"/>
<path d="M19.1992 73.8171H92.6853" stroke="black"/>
</svg>
