<svg width="847" height="259" viewBox="0 0 847 259" fill="none" xmlns="http://www.w3.org/2000/svg">
<path d="M171.96 146.72C171.96 144.736 171.16 142.88 169.56 141.152C167.96 139.36 165.976 137.792 163.608 136.448C161.24 135.04 157.944 133.248 153.72 131.072C148.792 128.576 144.824 126.432 141.816 124.64C138.872 122.848 136.344 120.736 134.232 118.304C132.184 115.808 131.16 113.056 131.16 110.048C131.16 106.848 132.472 103.424 135.096 99.776C137.72 96.064 140.92 92.96 144.696 90.464C148.536 87.904 152.056 86.624 155.256 86.624C159.16 86.624 163.672 87.104 168.792 88.064C173.976 89.024 177.752 90.048 180.12 91.136V109.28H177.528C174.328 104.032 170.808 100 166.968 97.184C163.128 94.304 159.096 92.864 154.872 92.864C150.968 92.864 147.896 94.08 145.656 96.512C143.416 98.88 142.296 101.984 142.296 105.824C142.296 107.936 143.128 109.92 144.792 111.776C146.456 113.568 148.504 115.2 150.936 116.672C153.432 118.144 156.792 119.936 161.016 122.048C165.816 124.48 169.656 126.592 172.536 128.384C175.48 130.112 177.944 132.192 179.928 134.624C181.976 136.992 183 139.648 183 142.592C183 145.792 181.592 149.248 178.776 152.96C175.96 156.608 172.504 159.712 168.408 162.272C164.376 164.768 160.696 166.016 157.368 166.016C153.272 166.016 148.408 165.536 142.776 164.576C137.144 163.616 133.112 162.592 130.68 161.504V143.36H133.272C136.664 148.608 140.472 152.672 144.696 155.552C148.984 158.368 153.368 159.776 157.848 159.776C160.664 159.776 163.128 159.168 165.24 157.952C167.416 156.736 169.08 155.136 170.232 153.152C171.384 151.104 171.96 148.96 171.96 146.72ZM227.179 164.288C224.811 164.736 222.027 164.96 218.827 164.96C214.731 164.96 211.019 163.872 207.691 161.696C204.427 159.52 201.867 156.544 200.011 152.768C198.155 148.992 197.227 144.832 197.227 140.288C197.227 135.36 198.699 130.72 201.643 126.368C204.587 122.016 208.267 118.56 212.683 116C217.163 113.44 221.483 112.16 225.643 112.16C231.531 112.16 236.107 114.528 239.371 119.264C242.699 124 244.395 130.208 244.459 137.888H208.843C209.163 143.584 210.635 148.288 213.259 152C215.947 155.648 219.659 157.472 224.395 157.472C228.555 157.472 234.347 154.048 241.771 147.2L244.651 150.56L227.179 164.288ZM220.075 119.648C212.907 119.648 209.163 124.576 208.843 134.432H232.075C231.435 130.784 230.795 128.032 230.155 126.176C229.579 124.256 228.491 122.688 226.891 121.472C225.355 120.256 223.051 119.648 219.979 119.648H220.075ZM287.049 112.16C291.209 112.16 294.921 113.28 298.185 115.52C301.449 117.696 304.009 120.672 305.865 124.448C307.721 128.224 308.649 132.384 308.649 136.928C308.649 141.856 307.177 146.496 304.233 150.848C301.289 155.136 297.577 158.56 293.097 161.12C288.681 163.68 284.393 164.96 280.233 164.96C276.137 164.96 272.425 163.872 269.097 161.696C265.833 159.52 263.273 156.544 261.417 152.768C259.561 148.992 258.633 144.832 258.633 140.288C258.633 135.36 260.105 130.72 263.049 126.368C265.993 122.016 269.673 118.56 274.089 116C278.569 113.44 282.889 112.16 287.049 112.16ZM281.481 119.648C273.865 119.648 270.057 124.992 270.057 135.68C270.057 141.888 271.401 147.072 274.089 151.232C276.777 155.392 280.681 157.472 285.801 157.472C293.353 157.472 297.129 152.128 297.129 141.44C297.129 135.232 295.785 130.048 293.097 125.888C290.409 121.728 286.537 119.648 281.481 119.648ZM374.657 164H357.089V153.632L344.609 164.192C343.265 164.704 341.537 164.96 339.425 164.96C335.137 164.96 331.745 163.648 329.249 161.024C326.817 158.336 325.601 154.72 325.601 150.176V126.752L317.057 121.76V119.264L332.993 111.2H336.161V145.856C336.161 149.504 336.705 152.032 337.793 153.44C338.945 154.848 340.961 155.552 343.841 155.552C345.889 155.552 347.905 155.168 349.889 154.4C351.937 153.568 354.337 151.968 357.089 149.6V126.752L348.545 121.76V119.264L364.481 111.2H367.649V157.184L376.289 160.64L374.657 164ZM409.727 164.096H383.711V161.6L392.255 154.976V94.592L383.711 88.544V86.048L399.647 80.192H402.815V157.184L411.455 160.736L409.727 164.096ZM495.59 123.392C500.518 124.736 504.422 127.104 507.302 130.496C510.246 133.824 511.718 137.664 511.718 142.016C511.718 146.048 510.118 149.856 506.918 153.44C503.782 156.96 499.814 159.776 495.014 161.888C490.278 164 485.766 165.056 481.478 165.056C478.278 165.056 475.142 164.896 472.07 164.576C466.95 164.256 462.982 164.096 460.166 164.096H448.454V161.6L457.478 154.496V95.264L447.59 91.904L449.222 88.544H460.07C465.894 88.544 471.622 88.352 477.254 87.968C481.606 87.712 484.806 87.584 486.854 87.584C491.014 87.584 494.694 88.416 497.894 90.08C501.094 91.744 503.558 94.016 505.286 96.896C507.014 99.712 507.878 102.88 507.878 106.4C507.878 109.6 506.726 112.672 504.422 115.616C502.182 118.56 499.27 121.088 495.686 123.2L495.59 123.392ZM495.974 111.008C495.974 105.888 494.566 101.696 491.75 98.432C488.998 95.104 484.87 93.44 479.366 93.44C475.206 93.44 471.494 94.72 468.23 97.28V122.72H482.63C486.79 122.72 490.022 121.696 492.326 119.648C494.694 117.6 495.878 114.72 495.878 111.008H495.974ZM484.07 158.528C488.806 158.528 492.582 157.344 495.398 154.976C498.278 152.544 499.718 149.344 499.718 145.376C499.718 140.256 498.214 136.128 495.206 132.992C492.198 129.856 487.718 128.192 481.766 128C481.318 128.064 480.71 128.096 479.942 128.096H468.23V155.936C472.582 157.664 477.894 158.528 484.166 158.528H484.07ZM547.727 164.096H521.711V161.6L530.255 154.976V94.592L521.711 88.544V86.048L537.647 80.192H540.815V157.184L549.455 160.736L547.727 164.096ZM614.469 164H596.901V153.632L584.421 164.192C583.077 164.704 581.349 164.96 579.237 164.96C574.949 164.96 571.557 163.648 569.061 161.024C566.629 158.336 565.413 154.72 565.413 150.176V126.752L556.869 121.76V119.264L572.805 111.2H575.973V145.856C575.973 149.504 576.517 152.032 577.605 153.44C578.757 154.848 580.773 155.552 583.653 155.552C585.701 155.552 587.717 155.168 589.701 154.4C591.749 153.568 594.149 151.968 596.901 149.6V126.752L588.357 121.76V119.264L604.293 111.2H607.461V157.184L616.101 160.64L614.469 164ZM656.835 164.288C654.467 164.736 651.683 164.96 648.483 164.96C644.387 164.96 640.675 163.872 637.347 161.696C634.083 159.52 631.523 156.544 629.667 152.768C627.811 148.992 626.883 144.832 626.883 140.288C626.883 135.36 628.355 130.72 631.299 126.368C634.243 122.016 637.923 118.56 642.339 116C646.819 113.44 651.139 112.16 655.299 112.16C661.187 112.16 665.763 114.528 669.027 119.264C672.355 124 674.051 130.208 674.115 137.888H638.499C638.819 143.584 640.291 148.288 642.915 152C645.603 155.648 649.315 157.472 654.051 157.472C658.211 157.472 664.003 154.048 671.427 147.2L674.307 150.56L656.835 164.288ZM649.731 119.648C642.563 119.648 638.819 124.576 638.499 134.432H661.731C661.091 130.784 660.451 128.032 659.811 126.176C659.235 124.256 658.147 122.688 656.547 121.472C655.011 120.256 652.707 119.648 649.635 119.648H649.731ZM718.337 154.016C718.337 152.096 717.313 150.4 715.265 148.928C713.281 147.392 710.145 145.504 705.857 143.264C700.865 140.768 697.057 138.464 694.433 136.352C691.809 134.24 690.497 131.744 690.497 128.864C690.497 126.56 691.425 124.096 693.281 121.472C695.201 118.848 697.505 116.64 700.193 114.848C702.945 113.056 705.505 112.16 707.873 112.16C710.689 112.16 713.985 112.544 717.761 113.312C721.537 114.016 724.289 114.816 726.017 115.712V130.304H722.849C720.673 126.208 718.209 123.008 715.457 120.704C712.769 118.4 709.985 117.248 707.105 117.248C704.929 117.248 703.201 117.824 701.921 118.976C700.641 120.128 700.001 121.536 700.001 123.2C700.001 125.312 701.025 127.168 703.073 128.768C705.185 130.304 708.449 132.192 712.865 134.432C716.129 136.096 718.753 137.536 720.737 138.752C722.721 139.904 724.385 141.28 725.729 142.88C727.137 144.48 727.841 146.272 727.841 148.256C727.841 150.624 726.849 153.12 724.865 155.744C722.881 158.304 720.481 160.48 717.665 162.272C714.849 164.064 712.257 164.96 709.889 164.96C706.817 164.96 703.169 164.576 698.945 163.808C694.721 163.04 691.713 162.24 689.921 161.408V147.008H693.089C695.329 151.104 698.017 154.272 701.153 156.512C704.353 158.752 707.553 159.872 710.753 159.872C712.993 159.872 714.817 159.296 716.225 158.144C717.633 156.992 718.337 155.616 718.337 154.016Z" fill="#D9B777"/>
<rect y="196" width="847" height="3" fill="#D9B777"/>
<path d="M271.304 248.468C264.248 248.468 260.72 244.04 260.72 235.184C260.72 230.984 261.572 227.792 263.276 225.608C265.004 223.424 267.752 222.332 271.52 222.332C274.544 222.332 277.232 223.172 279.584 224.852C279.584 226.196 279.416 227.9 279.08 229.964C278.744 230.036 278.048 230.072 276.992 230.072L275.912 225.608C274.208 225.296 272.84 225.14 271.808 225.14C269.912 225.14 268.244 225.404 266.804 225.932L266.12 226.184C265.976 226.424 265.796 226.784 265.58 227.264C265.364 227.72 265.076 228.692 264.716 230.18C264.38 231.668 264.212 233.192 264.212 234.752C264.212 238.136 264.764 240.824 265.868 242.816C266.996 244.808 268.784 245.804 271.232 245.804C272.984 245.804 274.304 245.624 275.192 245.264C275.432 245.144 275.78 244.964 276.236 244.724L276.992 240.404L279.08 240.512C279.44 242.984 279.62 244.988 279.62 246.524C279.116 246.908 278.024 247.328 276.344 247.784C274.688 248.24 273.008 248.468 271.304 248.468ZM293.042 245.66C297.89 245.66 300.314 242.252 300.314 235.436C300.314 228.596 297.89 225.176 293.042 225.176C290.762 225.176 288.902 225.512 287.462 226.184C286.166 228.752 285.518 231.716 285.518 235.076C285.518 238.412 286.07 241.016 287.174 242.888C288.302 244.736 290.258 245.66 293.042 245.66ZM281.99 235.544C281.99 231.32 282.854 228.068 284.582 225.788C286.334 223.484 289.166 222.332 293.078 222.332C297.014 222.332 299.786 223.388 301.394 225.5C303.026 227.588 303.842 230.756 303.842 235.004C303.842 239.252 302.966 242.552 301.214 244.904C299.486 247.256 296.714 248.432 292.898 248.432C289.106 248.432 286.334 247.34 284.582 245.156C282.854 242.972 281.99 239.768 281.99 235.544ZM312.282 236.732L312.102 245.588L315.126 245.84C315.126 246.512 314.922 247.232 314.514 248H306.234L306.126 246.74C307.182 246.356 308.202 246.08 309.186 245.912C309.042 236.552 308.922 229.592 308.826 225.032C308.298 224.984 307.242 224.696 305.658 224.168L305.838 222.8H323.19C323.238 223.112 323.262 223.592 323.262 224.24C323.262 225.536 323.094 226.976 322.758 228.56C322.23 228.656 321.534 228.704 320.67 228.704L319.806 225.284H312.426C312.378 227.3 312.33 230.324 312.282 234.356H317.97L318.258 231.764C318.93 231.764 319.65 231.968 320.418 232.376V239.216L319.158 239.324C318.798 238.292 318.558 237.428 318.438 236.732H312.282ZM332.286 236.732L332.106 245.588L335.13 245.84C335.13 246.512 334.926 247.232 334.518 248H326.238L326.13 246.74C327.186 246.356 328.206 246.08 329.19 245.912C329.046 236.552 328.926 229.592 328.83 225.032C328.302 224.984 327.246 224.696 325.662 224.168L325.842 222.8H343.194C343.242 223.112 343.266 223.592 343.266 224.24C343.266 225.536 343.098 226.976 342.762 228.56C342.234 228.656 341.538 228.704 340.674 228.704L339.81 225.284H332.43C332.382 227.3 332.334 230.324 332.286 234.356H337.974L338.262 231.764C338.934 231.764 339.654 231.968 340.422 232.376V239.216L339.162 239.324C338.802 238.292 338.562 237.428 338.442 236.732H332.286ZM352.434 225.284L352.254 233.96H357.942L358.23 231.368C358.902 231.368 359.622 231.572 360.39 231.98V238.82L359.13 238.928C358.77 237.896 358.53 237.032 358.41 236.336H352.254C352.206 238.424 352.158 241.508 352.11 245.588H360.354L361.218 242.204L363.306 242.348C363.642 243.716 363.81 244.928 363.81 245.984C363.81 247.016 363.786 247.688 363.738 248H346.242L346.134 246.74C347.19 246.356 348.21 246.08 349.194 245.912C349.05 236.552 348.93 229.592 348.834 225.032C348.306 224.984 347.25 224.696 345.666 224.168L345.846 222.8H363.198C363.246 223.112 363.27 223.592 363.27 224.24C363.27 225.56 363.102 226.988 362.766 228.524C362.238 228.644 361.542 228.704 360.678 228.704L359.814 225.284H352.434ZM373.844 225.284L373.664 233.96H379.352L379.64 231.368C380.312 231.368 381.032 231.572 381.8 231.98V238.82L380.54 238.928C380.18 237.896 379.94 237.032 379.82 236.336H373.664C373.616 238.424 373.568 241.508 373.52 245.588H381.764L382.628 242.204L384.716 242.348C385.052 243.716 385.22 244.928 385.22 245.984C385.22 247.016 385.196 247.688 385.148 248H367.652L367.544 246.74C368.6 246.356 369.62 246.08 370.604 245.912C370.46 236.552 370.34 229.592 370.244 225.032C369.716 224.984 368.66 224.696 367.076 224.168L367.256 222.8H384.608C384.656 223.112 384.68 223.592 384.68 224.24C384.68 225.56 384.512 226.988 384.176 228.524C383.648 228.644 382.952 228.704 382.088 228.704L381.224 225.284H373.844ZM405.362 235.616C404.258 236.12 403.346 236.852 402.626 237.812C401.93 238.748 401.582 239.732 401.582 240.764C401.582 241.772 401.798 242.648 402.23 243.392C402.662 244.136 403.202 244.688 403.85 245.048C405.074 245.768 406.274 246.128 407.45 246.128C409.922 246.128 411.986 245.144 413.642 243.176L405.362 235.616ZM407.306 248.432C404.546 248.432 402.338 247.784 400.682 246.488C399.026 245.192 398.198 243.32 398.198 240.872C398.198 239.24 398.702 237.812 399.71 236.588C400.742 235.364 401.93 234.452 403.274 233.852C402.386 232.868 401.738 231.956 401.33 231.116C400.946 230.276 400.754 229.268 400.754 228.092C400.754 226.436 401.378 225.068 402.626 223.988C403.898 222.908 405.626 222.368 407.81 222.368C408.986 222.368 410.114 222.62 411.194 223.124C412.298 223.628 413.162 224.18 413.786 224.78L413.174 228.344C412.91 228.44 412.574 228.488 412.166 228.488L411.482 228.452L410.582 224.744C409.886 224.552 408.962 224.456 407.81 224.456C406.658 224.456 405.794 224.816 405.218 225.536C404.642 226.256 404.354 226.976 404.354 227.696C404.354 228.416 404.498 229.088 404.786 229.712C405.098 230.336 405.41 230.84 405.722 231.224C406.058 231.584 406.622 232.16 407.414 232.952C408.158 233.72 410.678 236.468 414.974 241.196C415.886 239.588 416.342 237.164 416.342 233.924C416.342 233.228 416.318 232.664 416.27 232.232L413.246 231.944C413.246 231.272 413.45 230.552 413.858 229.784H422.138L422.246 231.044C421.142 231.428 420.038 231.716 418.934 231.908C418.91 233.3 418.67 235.124 418.214 237.38C417.782 239.636 417.194 241.34 416.45 242.492L421.094 247.604C420.71 248.3 420.23 248.648 419.654 248.648L414.974 244.616C414.086 245.624 412.874 246.512 411.338 247.28C409.826 248.048 408.482 248.432 407.306 248.432ZM454.873 234.824C454.873 240.248 453.637 243.932 451.165 245.876C450.133 246.692 449.017 247.256 447.817 247.568C446.617 247.856 445.045 248 443.101 248H433.957L433.849 246.74C433.945 246.668 434.437 246.512 435.325 246.272C436.213 246.032 436.741 245.912 436.909 245.912C436.765 236.552 436.645 229.592 436.549 225.032C435.469 224.888 434.413 224.6 433.381 224.168C433.429 223.352 433.489 222.896 433.561 222.8H442.633C445.129 222.8 447.097 223.028 448.537 223.484C450.001 223.94 451.273 224.78 452.353 226.004C454.033 227.852 454.873 230.792 454.873 234.824ZM451.381 235.112C451.381 231.872 450.769 229.436 449.545 227.804C448.345 226.148 446.317 225.32 443.461 225.32H439.789C439.693 229.736 439.573 236.48 439.429 245.552H443.209C446.497 245.552 448.681 244.82 449.761 243.356C450.841 241.868 451.381 239.12 451.381 235.112ZM464.161 225.284L463.981 233.96H469.669L469.957 231.368C470.629 231.368 471.349 231.572 472.117 231.98V238.82L470.857 238.928C470.497 237.896 470.257 237.032 470.137 236.336H463.981C463.933 238.424 463.885 241.508 463.837 245.588H472.081L472.945 242.204L475.033 242.348C475.369 243.716 475.537 244.928 475.537 245.984C475.537 247.016 475.513 247.688 475.465 248H457.969L457.861 246.74C458.917 246.356 459.937 246.08 460.921 245.912C460.777 236.552 460.657 229.592 460.561 225.032C460.033 224.984 458.977 224.696 457.393 224.168L457.573 222.8H474.925C474.973 223.112 474.997 223.592 474.997 224.24C474.997 225.56 474.829 226.988 474.492 228.524C473.965 228.644 473.269 228.704 472.405 228.704L471.541 225.284H464.161ZM488.019 245.588C491.595 245.588 493.383 244.136 493.383 241.232C493.383 239.816 492.507 238.616 490.755 237.632C489.963 237.176 489.087 236.744 488.127 236.336C487.191 235.928 486.243 235.484 485.283 235.004C484.323 234.524 483.447 234.008 482.655 233.456C481.887 232.904 481.251 232.208 480.747 231.368C480.267 230.528 480.027 229.58 480.027 228.524C480.027 226.796 480.723 225.332 482.115 224.132C483.531 222.908 485.463 222.296 487.911 222.296C490.359 222.296 492.939 223.04 495.651 224.528C495.651 225.896 495.483 227.612 495.147 229.676C494.619 229.748 493.923 229.784 493.059 229.784L491.979 225.608C491.691 225.464 491.115 225.32 490.251 225.176C489.411 225.032 488.667 224.96 488.019 224.96C486.627 224.96 485.547 225.26 484.779 225.86C484.011 226.436 483.627 227.252 483.627 228.308C483.627 229.34 484.071 230.276 484.959 231.116C485.871 231.932 486.963 232.64 488.235 233.24C489.531 233.816 490.815 234.416 492.087 235.04C493.383 235.664 494.475 236.48 495.363 237.488C496.275 238.472 496.731 239.624 496.731 240.944C496.731 243.344 495.927 245.204 494.319 246.524C492.711 247.82 490.611 248.468 488.019 248.468C486.603 248.468 485.067 248.252 483.411 247.82C481.779 247.364 480.423 246.788 479.343 246.092C479.391 244.484 479.571 242.624 479.883 240.512C480.411 240.44 481.107 240.404 481.971 240.404L482.727 244.724C483.255 244.94 484.047 245.144 485.103 245.336C486.183 245.504 487.155 245.588 488.019 245.588ZM508.655 245.588C512.231 245.588 514.019 244.136 514.019 241.232C514.019 239.816 513.143 238.616 511.391 237.632C510.599 237.176 509.723 236.744 508.763 236.336C507.827 235.928 506.879 235.484 505.919 235.004C504.959 234.524 504.083 234.008 503.291 233.456C502.523 232.904 501.887 232.208 501.383 231.368C500.903 230.528 500.663 229.58 500.663 228.524C500.663 226.796 501.359 225.332 502.751 224.132C504.167 222.908 506.099 222.296 508.547 222.296C510.995 222.296 513.575 223.04 516.287 224.528C516.287 225.896 516.119 227.612 515.783 229.676C515.255 229.748 514.559 229.784 513.695 229.784L512.615 225.608C512.327 225.464 511.751 225.32 510.887 225.176C510.047 225.032 509.303 224.96 508.655 224.96C507.263 224.96 506.183 225.26 505.415 225.86C504.647 226.436 504.263 227.252 504.263 228.308C504.263 229.34 504.707 230.276 505.595 231.116C506.507 231.932 507.599 232.64 508.871 233.24C510.167 233.816 511.451 234.416 512.723 235.04C514.019 235.664 515.111 236.48 515.999 237.488C516.911 238.472 517.367 239.624 517.367 240.944C517.367 243.344 516.563 245.204 514.955 246.524C513.347 247.82 511.247 248.468 508.655 248.468C507.239 248.468 505.703 248.252 504.047 247.82C502.415 247.364 501.059 246.788 499.979 246.092C500.027 244.484 500.207 242.624 500.519 240.512C501.047 240.44 501.743 240.404 502.607 240.404L503.363 244.724C503.891 244.94 504.683 245.144 505.739 245.336C506.819 245.504 507.791 245.588 508.655 245.588ZM526.844 225.284L526.664 233.96H532.352L532.64 231.368C533.312 231.368 534.032 231.572 534.8 231.98V238.82L533.54 238.928C533.18 237.896 532.94 237.032 532.82 236.336H526.664C526.616 238.424 526.568 241.508 526.52 245.588H534.764L535.628 242.204L537.716 242.348C538.052 243.716 538.22 244.928 538.22 245.984C538.22 247.016 538.196 247.688 538.148 248H520.652L520.544 246.74C521.6 246.356 522.62 246.08 523.604 245.912C523.46 236.552 523.34 229.592 523.244 225.032C522.716 224.984 521.66 224.696 520.076 224.168L520.256 222.8H537.608C537.656 223.112 537.68 223.592 537.68 224.24C537.68 225.56 537.512 226.988 537.176 228.524C536.648 228.644 535.952 228.704 535.088 228.704L534.224 225.284H526.844ZM554.23 225.68C553.462 225.44 552.442 225.32 551.17 225.32H548.182L548.074 234.392L550.81 234.356C552.586 234.332 554.002 233.972 555.058 233.276C556.114 232.58 556.642 231.26 556.642 229.316C556.642 227.348 555.838 226.136 554.23 225.68ZM548.038 236.696L547.93 245.588L550.918 245.84C550.918 246.512 550.714 247.232 550.306 248H542.026L541.918 246.74C542.926 246.38 543.958 246.104 545.014 245.912C544.87 236.792 544.75 229.832 544.654 225.032C543.982 224.936 542.926 224.648 541.486 224.168C541.486 223.856 541.546 223.4 541.666 222.8H549.766C554.158 222.8 557.014 223.34 558.334 224.42C559.63 225.452 560.278 227.072 560.278 229.28C560.278 233 558.238 235.412 554.158 236.516L560.314 245.624L563.302 245.876C563.302 246.524 563.098 247.232 562.69 248H558.262L550.702 236.696H548.038ZM577.135 225.032C577.015 229.064 576.883 235.904 576.739 245.552L579.763 245.84C579.763 246.512 579.559 247.232 579.151 248H570.871L570.763 246.74C572.155 246.236 573.259 245.948 574.075 245.876C573.835 236.612 573.643 229.664 573.499 225.032H568.243L567.379 228.704L565.291 228.56C564.931 227.096 564.751 225.608 564.751 224.096C564.751 223.808 564.775 223.376 564.823 222.8H585.559C585.607 223.112 585.631 223.592 585.631 224.24C585.631 225.536 585.463 226.952 585.127 228.488C584.599 228.632 583.903 228.704 583.039 228.704L582.139 225.032H577.135Z" fill="#D9B777"/>
</svg>
