<svg width="1105" height="1105" viewBox="0 0 1105 1105" fill="none" xmlns="http://www.w3.org/2000/svg">
<g id="Seoul_cafe--logo">
<circle id="Ellipse 5" cx="552.5" cy="552.5" r="545" fill="#3C4959" stroke="#D9B777" stroke-width="15"/>
<circle id="Ellipse 4" cx="552" cy="552" r="510.5" fill="#3C4959" stroke="#D9B777" stroke-width="15"/>
<path id="Seoul Blues" d="M294.96 499.72C294.96 497.736 294.16 495.88 292.56 494.152C290.96 492.36 288.976 490.792 286.608 489.448C284.24 488.04 280.944 486.248 276.72 484.072C271.792 481.576 267.824 479.432 264.816 477.64C261.872 475.848 259.344 473.736 257.232 471.304C255.184 468.808 254.16 466.056 254.16 463.048C254.16 459.848 255.472 456.424 258.096 452.776C260.72 449.064 263.92 445.96 267.696 443.464C271.536 440.904 275.056 439.624 278.256 439.624C282.16 439.624 286.672 440.104 291.792 441.064C296.976 442.024 300.752 443.048 303.12 444.136V462.28H300.528C297.328 457.032 293.808 453 289.968 450.184C286.128 447.304 282.096 445.864 277.872 445.864C273.968 445.864 270.896 447.08 268.656 449.512C266.416 451.88 265.296 454.984 265.296 458.824C265.296 460.936 266.128 462.92 267.792 464.776C269.456 466.568 271.504 468.2 273.936 469.672C276.432 471.144 279.792 472.936 284.016 475.048C288.816 477.48 292.656 479.592 295.536 481.384C298.48 483.112 300.944 485.192 302.928 487.624C304.976 489.992 306 492.648 306 495.592C306 498.792 304.592 502.248 301.776 505.96C298.96 509.608 295.504 512.712 291.408 515.272C287.376 517.768 283.696 519.016 280.368 519.016C276.272 519.016 271.408 518.536 265.776 517.576C260.144 516.616 256.112 515.592 253.68 514.504V496.36H256.272C259.664 501.608 263.472 505.672 267.696 508.552C271.984 511.368 276.368 512.776 280.848 512.776C283.664 512.776 286.128 512.168 288.24 510.952C290.416 509.736 292.08 508.136 293.232 506.152C294.384 504.104 294.96 501.96 294.96 499.72ZM350.179 517.288C347.811 517.736 345.027 517.96 341.827 517.96C337.731 517.96 334.019 516.872 330.691 514.696C327.427 512.52 324.867 509.544 323.011 505.768C321.155 501.992 320.227 497.832 320.227 493.288C320.227 488.36 321.699 483.72 324.643 479.368C327.587 475.016 331.267 471.56 335.683 469C340.163 466.44 344.483 465.16 348.643 465.16C354.531 465.16 359.107 467.528 362.371 472.264C365.699 477 367.395 483.208 367.459 490.888H331.843C332.163 496.584 333.635 501.288 336.259 505C338.947 508.648 342.659 510.472 347.395 510.472C351.555 510.472 357.347 507.048 364.771 500.2L367.651 503.56L350.179 517.288ZM343.075 472.648C335.907 472.648 332.163 477.576 331.843 487.432H355.075C354.435 483.784 353.795 481.032 353.155 479.176C352.579 477.256 351.491 475.688 349.891 474.472C348.355 473.256 346.051 472.648 342.979 472.648H343.075ZM410.049 465.16C414.209 465.16 417.921 466.28 421.185 468.52C424.449 470.696 427.009 473.672 428.865 477.448C430.721 481.224 431.649 485.384 431.649 489.928C431.649 494.856 430.177 499.496 427.233 503.848C424.289 508.136 420.577 511.56 416.097 514.12C411.681 516.68 407.393 517.96 403.233 517.96C399.137 517.96 395.425 516.872 392.097 514.696C388.833 512.52 386.273 509.544 384.417 505.768C382.561 501.992 381.633 497.832 381.633 493.288C381.633 488.36 383.105 483.72 386.049 479.368C388.993 475.016 392.673 471.56 397.089 469C401.569 466.44 405.889 465.16 410.049 465.16ZM404.481 472.648C396.865 472.648 393.057 477.992 393.057 488.68C393.057 494.888 394.401 500.072 397.089 504.232C399.777 508.392 403.681 510.472 408.801 510.472C416.353 510.472 420.129 505.128 420.129 494.44C420.129 488.232 418.785 483.048 416.097 478.888C413.409 474.728 409.537 472.648 404.481 472.648ZM497.657 517H480.089V506.632L467.609 517.192C466.265 517.704 464.537 517.96 462.425 517.96C458.137 517.96 454.745 516.648 452.249 514.024C449.817 511.336 448.601 507.72 448.601 503.176V479.752L440.057 474.76V472.264L455.993 464.2H459.161V498.856C459.161 502.504 459.705 505.032 460.793 506.44C461.945 507.848 463.961 508.552 466.841 508.552C468.889 508.552 470.905 508.168 472.889 507.4C474.937 506.568 477.337 504.968 480.089 502.6V479.752L471.545 474.76V472.264L487.481 464.2H490.649V510.184L499.289 513.64L497.657 517ZM532.727 517.096H506.711V514.6L515.255 507.976V447.592L506.711 441.544V439.048L522.647 433.192H525.815V510.184L534.455 513.736L532.727 517.096ZM618.59 476.392C623.518 477.736 627.422 480.104 630.302 483.496C633.246 486.824 634.718 490.664 634.718 495.016C634.718 499.048 633.118 502.856 629.918 506.44C626.782 509.96 622.814 512.776 618.014 514.888C613.278 517 608.766 518.056 604.478 518.056C601.278 518.056 598.142 517.896 595.07 517.576C589.95 517.256 585.982 517.096 583.166 517.096H571.454V514.6L580.478 507.496V448.264L570.59 444.904L572.222 441.544H583.07C588.894 441.544 594.622 441.352 600.254 440.968C604.606 440.712 607.806 440.584 609.854 440.584C614.014 440.584 617.694 441.416 620.894 443.08C624.094 444.744 626.558 447.016 628.286 449.896C630.014 452.712 630.878 455.88 630.878 459.4C630.878 462.6 629.726 465.672 627.422 468.616C625.182 471.56 622.27 474.088 618.686 476.2L618.59 476.392ZM618.974 464.008C618.974 458.888 617.566 454.696 614.75 451.432C611.998 448.104 607.87 446.44 602.366 446.44C598.206 446.44 594.494 447.72 591.23 450.28V475.72H605.63C609.79 475.72 613.022 474.696 615.326 472.648C617.694 470.6 618.878 467.72 618.878 464.008H618.974ZM607.07 511.528C611.806 511.528 615.582 510.344 618.398 507.976C621.278 505.544 622.718 502.344 622.718 498.376C622.718 493.256 621.214 489.128 618.206 485.992C615.198 482.856 610.718 481.192 604.766 481C604.318 481.064 603.71 481.096 602.942 481.096H591.23V508.936C595.582 510.664 600.894 511.528 607.166 511.528H607.07ZM670.727 517.096H644.711V514.6L653.255 507.976V447.592L644.711 441.544V439.048L660.647 433.192H663.815V510.184L672.455 513.736L670.727 517.096ZM737.469 517H719.901V506.632L707.421 517.192C706.077 517.704 704.349 517.96 702.237 517.96C697.949 517.96 694.557 516.648 692.061 514.024C689.629 511.336 688.413 507.72 688.413 503.176V479.752L679.869 474.76V472.264L695.805 464.2H698.973V498.856C698.973 502.504 699.517 505.032 700.605 506.44C701.757 507.848 703.773 508.552 706.653 508.552C708.701 508.552 710.717 508.168 712.701 507.4C714.749 506.568 717.149 504.968 719.901 502.6V479.752L711.357 474.76V472.264L727.293 464.2H730.461V510.184L739.101 513.64L737.469 517ZM779.835 517.288C777.467 517.736 774.683 517.96 771.483 517.96C767.387 517.96 763.675 516.872 760.347 514.696C757.083 512.52 754.523 509.544 752.667 505.768C750.811 501.992 749.883 497.832 749.883 493.288C749.883 488.36 751.355 483.72 754.299 479.368C757.243 475.016 760.923 471.56 765.339 469C769.819 466.44 774.139 465.16 778.299 465.16C784.187 465.16 788.763 467.528 792.027 472.264C795.355 477 797.051 483.208 797.115 490.888H761.499C761.819 496.584 763.291 501.288 765.915 505C768.603 508.648 772.315 510.472 777.051 510.472C781.211 510.472 787.003 507.048 794.427 500.2L797.307 503.56L779.835 517.288ZM772.731 472.648C765.563 472.648 761.819 477.576 761.499 487.432H784.731C784.091 483.784 783.451 481.032 782.811 479.176C782.235 477.256 781.147 475.688 779.547 474.472C778.011 473.256 775.707 472.648 772.635 472.648H772.731ZM841.337 507.016C841.337 505.096 840.313 503.4 838.265 501.928C836.281 500.392 833.145 498.504 828.857 496.264C823.865 493.768 820.057 491.464 817.433 489.352C814.809 487.24 813.497 484.744 813.497 481.864C813.497 479.56 814.425 477.096 816.281 474.472C818.201 471.848 820.505 469.64 823.193 467.848C825.945 466.056 828.505 465.16 830.873 465.16C833.689 465.16 836.985 465.544 840.761 466.312C844.537 467.016 847.289 467.816 849.017 468.712V483.304H845.849C843.673 479.208 841.209 476.008 838.457 473.704C835.769 471.4 832.985 470.248 830.105 470.248C827.929 470.248 826.201 470.824 824.921 471.976C823.641 473.128 823.001 474.536 823.001 476.2C823.001 478.312 824.025 480.168 826.073 481.768C828.185 483.304 831.449 485.192 835.865 487.432C839.129 489.096 841.753 490.536 843.737 491.752C845.721 492.904 847.385 494.28 848.729 495.88C850.137 497.48 850.841 499.272 850.841 501.256C850.841 503.624 849.849 506.12 847.865 508.744C845.881 511.304 843.481 513.48 840.665 515.272C837.849 517.064 835.257 517.96 832.889 517.96C829.817 517.96 826.169 517.576 821.945 516.808C817.721 516.04 814.713 515.24 812.921 514.408V500.008H816.089C818.329 504.104 821.017 507.272 824.153 509.512C827.353 511.752 830.553 512.872 833.753 512.872C835.993 512.872 837.817 512.296 839.225 511.144C840.633 509.992 841.337 508.616 841.337 507.016Z" fill="#D9B777"/>
<rect id="Rectangle 70" x="123" y="549" width="847" height="3" fill="#D9B777"/>
<path id="COFFEE &#38; DESSERT" d="M394.304 601.468C387.248 601.468 383.72 597.04 383.72 588.184C383.72 583.984 384.572 580.792 386.276 578.608C388.004 576.424 390.752 575.332 394.52 575.332C397.544 575.332 400.232 576.172 402.584 577.852C402.584 579.196 402.416 580.9 402.08 582.964C401.744 583.036 401.048 583.072 399.992 583.072L398.912 578.608C397.208 578.296 395.84 578.14 394.808 578.14C392.912 578.14 391.244 578.404 389.804 578.932L389.12 579.184C388.976 579.424 388.796 579.784 388.58 580.264C388.364 580.72 388.076 581.692 387.716 583.18C387.38 584.668 387.212 586.192 387.212 587.752C387.212 591.136 387.764 593.824 388.868 595.816C389.996 597.808 391.784 598.804 394.232 598.804C395.984 598.804 397.304 598.624 398.192 598.264C398.432 598.144 398.78 597.964 399.236 597.724L399.992 593.404L402.08 593.512C402.44 595.984 402.62 597.988 402.62 599.524C402.116 599.908 401.024 600.328 399.344 600.784C397.688 601.24 396.008 601.468 394.304 601.468ZM416.042 598.66C420.89 598.66 423.314 595.252 423.314 588.436C423.314 581.596 420.89 578.176 416.042 578.176C413.762 578.176 411.902 578.512 410.462 579.184C409.166 581.752 408.518 584.716 408.518 588.076C408.518 591.412 409.07 594.016 410.174 595.888C411.302 597.736 413.258 598.66 416.042 598.66ZM404.99 588.544C404.99 584.32 405.854 581.068 407.582 578.788C409.334 576.484 412.166 575.332 416.078 575.332C420.014 575.332 422.786 576.388 424.394 578.5C426.026 580.588 426.842 583.756 426.842 588.004C426.842 592.252 425.966 595.552 424.214 597.904C422.486 600.256 419.714 601.432 415.898 601.432C412.106 601.432 409.334 600.34 407.582 598.156C405.854 595.972 404.99 592.768 404.99 588.544ZM435.282 589.732L435.102 598.588L438.126 598.84C438.126 599.512 437.922 600.232 437.514 601H429.234L429.126 599.74C430.182 599.356 431.202 599.08 432.186 598.912C432.042 589.552 431.922 582.592 431.826 578.032C431.298 577.984 430.242 577.696 428.658 577.168L428.838 575.8H446.19C446.238 576.112 446.262 576.592 446.262 577.24C446.262 578.536 446.094 579.976 445.758 581.56C445.23 581.656 444.534 581.704 443.67 581.704L442.806 578.284H435.426C435.378 580.3 435.33 583.324 435.282 587.356H440.97L441.258 584.764C441.93 584.764 442.65 584.968 443.418 585.376V592.216L442.158 592.324C441.798 591.292 441.558 590.428 441.438 589.732H435.282ZM455.286 589.732L455.106 598.588L458.13 598.84C458.13 599.512 457.926 600.232 457.518 601H449.238L449.13 599.74C450.186 599.356 451.206 599.08 452.19 598.912C452.046 589.552 451.926 582.592 451.83 578.032C451.302 577.984 450.246 577.696 448.662 577.168L448.842 575.8H466.194C466.242 576.112 466.266 576.592 466.266 577.24C466.266 578.536 466.098 579.976 465.762 581.56C465.234 581.656 464.538 581.704 463.674 581.704L462.81 578.284H455.43C455.382 580.3 455.334 583.324 455.286 587.356H460.974L461.262 584.764C461.934 584.764 462.654 584.968 463.422 585.376V592.216L462.162 592.324C461.802 591.292 461.562 590.428 461.442 589.732H455.286ZM475.434 578.284L475.254 586.96H480.942L481.23 584.368C481.902 584.368 482.622 584.572 483.39 584.98V591.82L482.13 591.928C481.77 590.896 481.53 590.032 481.41 589.336H475.254C475.206 591.424 475.158 594.508 475.11 598.588H483.354L484.218 595.204L486.306 595.348C486.642 596.716 486.81 597.928 486.81 598.984C486.81 600.016 486.786 600.688 486.738 601H469.242L469.134 599.74C470.19 599.356 471.21 599.08 472.194 598.912C472.05 589.552 471.93 582.592 471.834 578.032C471.306 577.984 470.25 577.696 468.666 577.168L468.846 575.8H486.198C486.246 576.112 486.27 576.592 486.27 577.24C486.27 578.56 486.102 579.988 485.766 581.524C485.238 581.644 484.542 581.704 483.678 581.704L482.814 578.284H475.434ZM496.844 578.284L496.664 586.96H502.352L502.64 584.368C503.312 584.368 504.032 584.572 504.8 584.98V591.82L503.54 591.928C503.18 590.896 502.94 590.032 502.82 589.336H496.664C496.616 591.424 496.568 594.508 496.52 598.588H504.764L505.628 595.204L507.716 595.348C508.052 596.716 508.22 597.928 508.22 598.984C508.22 600.016 508.196 600.688 508.148 601H490.652L490.544 599.74C491.6 599.356 492.62 599.08 493.604 598.912C493.46 589.552 493.34 582.592 493.244 578.032C492.716 577.984 491.66 577.696 490.076 577.168L490.256 575.8H507.608C507.656 576.112 507.68 576.592 507.68 577.24C507.68 578.56 507.512 579.988 507.176 581.524C506.648 581.644 505.952 581.704 505.088 581.704L504.224 578.284H496.844ZM528.362 588.616C527.258 589.12 526.346 589.852 525.626 590.812C524.93 591.748 524.582 592.732 524.582 593.764C524.582 594.772 524.798 595.648 525.23 596.392C525.662 597.136 526.202 597.688 526.85 598.048C528.074 598.768 529.274 599.128 530.45 599.128C532.922 599.128 534.986 598.144 536.642 596.176L528.362 588.616ZM530.306 601.432C527.546 601.432 525.338 600.784 523.682 599.488C522.026 598.192 521.198 596.32 521.198 593.872C521.198 592.24 521.702 590.812 522.71 589.588C523.742 588.364 524.93 587.452 526.274 586.852C525.386 585.868 524.738 584.956 524.33 584.116C523.946 583.276 523.754 582.268 523.754 581.092C523.754 579.436 524.378 578.068 525.626 576.988C526.898 575.908 528.626 575.368 530.81 575.368C531.986 575.368 533.114 575.62 534.194 576.124C535.298 576.628 536.162 577.18 536.786 577.78L536.174 581.344C535.91 581.44 535.574 581.488 535.166 581.488L534.482 581.452L533.582 577.744C532.886 577.552 531.962 577.456 530.81 577.456C529.658 577.456 528.794 577.816 528.218 578.536C527.642 579.256 527.354 579.976 527.354 580.696C527.354 581.416 527.498 582.088 527.786 582.712C528.098 583.336 528.41 583.84 528.722 584.224C529.058 584.584 529.622 585.16 530.414 585.952C531.158 586.72 533.678 589.468 537.974 594.196C538.886 592.588 539.342 590.164 539.342 586.924C539.342 586.228 539.318 585.664 539.27 585.232L536.246 584.944C536.246 584.272 536.45 583.552 536.858 582.784H545.138L545.246 584.044C544.142 584.428 543.038 584.716 541.934 584.908C541.91 586.3 541.67 588.124 541.214 590.38C540.782 592.636 540.194 594.34 539.45 595.492L544.094 600.604C543.71 601.3 543.23 601.648 542.654 601.648L537.974 597.616C537.086 598.624 535.874 599.512 534.338 600.28C532.826 601.048 531.482 601.432 530.306 601.432ZM577.873 587.824C577.873 593.248 576.637 596.932 574.165 598.876C573.133 599.692 572.017 600.256 570.817 600.568C569.617 600.856 568.045 601 566.101 601H556.957L556.849 599.74C556.945 599.668 557.437 599.512 558.325 599.272C559.213 599.032 559.741 598.912 559.909 598.912C559.765 589.552 559.645 582.592 559.549 578.032C558.469 577.888 557.413 577.6 556.381 577.168C556.429 576.352 556.489 575.896 556.561 575.8H565.633C568.129 575.8 570.097 576.028 571.537 576.484C573.001 576.94 574.273 577.78 575.353 579.004C577.033 580.852 577.873 583.792 577.873 587.824ZM574.381 588.112C574.381 584.872 573.769 582.436 572.545 580.804C571.345 579.148 569.317 578.32 566.461 578.32H562.789C562.693 582.736 562.573 589.48 562.429 598.552H566.209C569.497 598.552 571.681 597.82 572.761 596.356C573.841 594.868 574.381 592.12 574.381 588.112ZM587.161 578.284L586.981 586.96H592.669L592.957 584.368C593.629 584.368 594.349 584.572 595.117 584.98V591.82L593.857 591.928C593.497 590.896 593.257 590.032 593.137 589.336H586.981C586.933 591.424 586.885 594.508 586.837 598.588H595.081L595.945 595.204L598.033 595.348C598.369 596.716 598.537 597.928 598.537 598.984C598.537 600.016 598.513 600.688 598.465 601H580.969L580.861 599.74C581.917 599.356 582.937 599.08 583.921 598.912C583.777 589.552 583.657 582.592 583.561 578.032C583.033 577.984 581.977 577.696 580.393 577.168L580.573 575.8H597.925C597.973 576.112 597.997 576.592 597.997 577.24C597.997 578.56 597.829 579.988 597.492 581.524C596.965 581.644 596.269 581.704 595.405 581.704L594.541 578.284H587.161ZM611.019 598.588C614.595 598.588 616.383 597.136 616.383 594.232C616.383 592.816 615.507 591.616 613.755 590.632C612.963 590.176 612.087 589.744 611.127 589.336C610.191 588.928 609.243 588.484 608.283 588.004C607.323 587.524 606.447 587.008 605.655 586.456C604.887 585.904 604.251 585.208 603.747 584.368C603.267 583.528 603.027 582.58 603.027 581.524C603.027 579.796 603.723 578.332 605.115 577.132C606.531 575.908 608.463 575.296 610.911 575.296C613.359 575.296 615.939 576.04 618.651 577.528C618.651 578.896 618.483 580.612 618.147 582.676C617.619 582.748 616.923 582.784 616.059 582.784L614.979 578.608C614.691 578.464 614.115 578.32 613.251 578.176C612.411 578.032 611.667 577.96 611.019 577.96C609.627 577.96 608.547 578.26 607.779 578.86C607.011 579.436 606.627 580.252 606.627 581.308C606.627 582.34 607.071 583.276 607.959 584.116C608.871 584.932 609.963 585.64 611.235 586.24C612.531 586.816 613.815 587.416 615.087 588.04C616.383 588.664 617.475 589.48 618.363 590.488C619.275 591.472 619.731 592.624 619.731 593.944C619.731 596.344 618.927 598.204 617.319 599.524C615.711 600.82 613.611 601.468 611.019 601.468C609.603 601.468 608.067 601.252 606.411 600.82C604.779 600.364 603.423 599.788 602.343 599.092C602.391 597.484 602.571 595.624 602.883 593.512C603.411 593.44 604.107 593.404 604.971 593.404L605.727 597.724C606.255 597.94 607.047 598.144 608.103 598.336C609.183 598.504 610.155 598.588 611.019 598.588ZM631.655 598.588C635.231 598.588 637.019 597.136 637.019 594.232C637.019 592.816 636.143 591.616 634.391 590.632C633.599 590.176 632.723 589.744 631.763 589.336C630.827 588.928 629.879 588.484 628.919 588.004C627.959 587.524 627.083 587.008 626.291 586.456C625.523 585.904 624.887 585.208 624.383 584.368C623.903 583.528 623.663 582.58 623.663 581.524C623.663 579.796 624.359 578.332 625.751 577.132C627.167 575.908 629.099 575.296 631.547 575.296C633.995 575.296 636.575 576.04 639.287 577.528C639.287 578.896 639.119 580.612 638.783 582.676C638.255 582.748 637.559 582.784 636.695 582.784L635.615 578.608C635.327 578.464 634.751 578.32 633.887 578.176C633.047 578.032 632.303 577.96 631.655 577.96C630.263 577.96 629.183 578.26 628.415 578.86C627.647 579.436 627.263 580.252 627.263 581.308C627.263 582.34 627.707 583.276 628.595 584.116C629.507 584.932 630.599 585.64 631.871 586.24C633.167 586.816 634.451 587.416 635.723 588.04C637.019 588.664 638.111 589.48 638.999 590.488C639.911 591.472 640.367 592.624 640.367 593.944C640.367 596.344 639.563 598.204 637.955 599.524C636.347 600.82 634.247 601.468 631.655 601.468C630.239 601.468 628.703 601.252 627.047 600.82C625.415 600.364 624.059 599.788 622.979 599.092C623.027 597.484 623.207 595.624 623.519 593.512C624.047 593.44 624.743 593.404 625.607 593.404L626.363 597.724C626.891 597.94 627.683 598.144 628.739 598.336C629.819 598.504 630.791 598.588 631.655 598.588ZM649.844 578.284L649.664 586.96H655.352L655.64 584.368C656.312 584.368 657.032 584.572 657.8 584.98V591.82L656.54 591.928C656.18 590.896 655.94 590.032 655.82 589.336H649.664C649.616 591.424 649.568 594.508 649.52 598.588H657.764L658.628 595.204L660.716 595.348C661.052 596.716 661.22 597.928 661.22 598.984C661.22 600.016 661.196 600.688 661.148 601H643.652L643.544 599.74C644.6 599.356 645.62 599.08 646.604 598.912C646.46 589.552 646.34 582.592 646.244 578.032C645.716 577.984 644.66 577.696 643.076 577.168L643.256 575.8H660.608C660.656 576.112 660.68 576.592 660.68 577.24C660.68 578.56 660.512 579.988 660.176 581.524C659.648 581.644 658.952 581.704 658.088 581.704L657.224 578.284H649.844ZM677.23 578.68C676.462 578.44 675.442 578.32 674.17 578.32H671.182L671.074 587.392L673.81 587.356C675.586 587.332 677.002 586.972 678.058 586.276C679.114 585.58 679.642 584.26 679.642 582.316C679.642 580.348 678.838 579.136 677.23 578.68ZM671.038 589.696L670.93 598.588L673.918 598.84C673.918 599.512 673.714 600.232 673.306 601H665.026L664.918 599.74C665.926 599.38 666.958 599.104 668.014 598.912C667.87 589.792 667.75 582.832 667.654 578.032C666.982 577.936 665.926 577.648 664.486 577.168C664.486 576.856 664.546 576.4 664.666 575.8H672.766C677.158 575.8 680.014 576.34 681.334 577.42C682.63 578.452 683.278 580.072 683.278 582.28C683.278 586 681.238 588.412 677.158 589.516L683.314 598.624L686.302 598.876C686.302 599.524 686.098 600.232 685.69 601H681.262L673.702 589.696H671.038ZM700.135 578.032C700.015 582.064 699.883 588.904 699.739 598.552L702.763 598.84C702.763 599.512 702.559 600.232 702.151 601H693.871L693.763 599.74C695.155 599.236 696.259 598.948 697.075 598.876C696.835 589.612 696.643 582.664 696.499 578.032H691.243L690.379 581.704L688.291 581.56C687.931 580.096 687.751 578.608 687.751 577.096C687.751 576.808 687.775 576.376 687.823 575.8H708.559C708.607 576.112 708.631 576.592 708.631 577.24C708.631 578.536 708.463 579.952 708.127 581.488C707.599 581.632 706.903 581.704 706.039 581.704L705.139 578.032H700.135Z" fill="#D9B777"/>
</g>
</svg>
